<svg xmlns="http://www.w3.org/2000/svg" viewBox="0 0 1088.08 180.99"><defs><style>.cls-1{fill:#231f20;}</style></defs><title>1Artboard 3 copy 3</title><g id="Layer_2" data-name="Layer 2"><path class="cls-1" d="M898.94,45.4c-29.07,0-45.44,20.59-50.72,33.16V48.4H781V177h67.23V101.33c0-11.18,7.29-16.8,13.24-16.8,9.48,0,10.36,9.53,10.36,21V177h67.23V93.81C939.06,72.06,930.67,45.4,898.94,45.4Z"/><polygon class="cls-1" points="98.99 51.75 0 0 0 176.99 76.5 176.99 76.5 128.24 175.49 179.99 175.49 3 98.99 3 98.99 51.75"/><path class="cls-1" d="M262.25,45.4c-44.23,0-80.09,29.35-80.09,66.8S218,179,262.25,179s80.09-29.35,80.09-66.8S306.48,45.4,262.25,45.4Zm0,88c-7.1,0-12.86-9.51-12.86-21.24S255.15,91,262.25,91s12.86,9.51,12.86,21.24S269.35,133.43,262.25,133.43Z"/><path class="cls-1" d="M474.11,3H368.65V177h76.5V127.43h29A62.21,62.21,0,1,0,474.11,3ZM456.23,88c-7.1,0-12.86-9.51-12.86-21.24s5.76-21.24,12.86-21.24S469.09,55,469.09,66.72,463.33,88,456.23,88Z"/><rect class="cls-1" x="541.65" y="3" width="67.23" height="173.99"/><path class="cls-1" d="M698.19,45.4C652,45.4,632.26,58,618.86,71.12v47c12.41-13.05,24.7-23,49.76-23A36.83,36.83,0,0,1,701,113.44c-8.51-6.77-19-9.55-33.11-9.55-24.65,0-49,17.72-49,44.1,0,22,18.53,32,41.17,32,19.51,0,34.2-4.5,42.65-13.48V177h67.23V112.73C769.91,91,769.09,45.4,698.19,45.4Zm-4.68,116.54c-6.52,0-11.8-8.73-11.8-19.49S687,123,693.51,123s11.8,8.73,11.8,19.49S700,161.93,693.51,161.93Z"/><path class="cls-1" d="M1050.26,111.13c-10.78-1.31-32.08-3.16-40.76-4-8.5-.8-9.86-9.37,4.14-9.37s43.87,2.11,65.1,8.58l-1.33-46.48c-21.32-9.81-53-14.48-76.33-14.48-33.39,0-55.25,17.39-55.25,39.62s12.84,28.59,26.33,30.68c15.78,2.45,35.27,4.26,41.5,4.62,11.25.66,13,8.17,2,8.61-12,.48-42.89-.87-64.89-8v51.52c18,5.49,47.67,8.57,75,8.57,45.67,0,62.33-16.8,62.33-35.85C1088.08,124.18,1075.44,114.18,1050.26,111.13Z"/></g></svg>